<!-- Generator: Adobe Illustrator 17.1.0, SVG Export Plug-In  -->
<svg version="1.1"
	 xmlns="http://www.w3.org/2000/svg" xmlns:xlink="http://www.w3.org/1999/xlink" xmlns:a="http://ns.adobe.com/AdobeSVGViewerExtensions/3.0/"
	 x="0px" y="0px" width="667.2px" height="132.2px" viewBox="0 0 667.2 132.2" enable-background="new 0 0 667.2 132.2"
	 xml:space="preserve">
<defs>
</defs>
<path d="M61.3,0.2c13.1,0,26.3-0.3,39.4,0.1c11.5,0.3,20.8,9.9,20.9,21.4c0.2,24.1,0.3,48.1-0.1,72.2c-0.2,9.5-5.6,16.5-14.3,20.5
	C95.2,119.8,83,125,70.8,130.3c-5.9,2.5-12,2.5-18,0.1c-12.5-5-24.9-10.1-37.4-15.3C5.2,110.8,0.1,103,0.1,92.1
	C0,69.3,0,46.5,0.1,23.7C0.2,9.4,9,0.4,23.3,0.1c12.7-0.2,25.3,0,38,0C61.3,0.1,61.3,0.1,61.3,0.2z M80.5,117.3
	c8.1-3.6,15.9-6.9,23.7-10.5c6.5-3,9.4-8.3,9.4-15.3c0-22.5,0-45,0-67.5c0-9.3-6.4-16.1-15.7-16.1c-24.6-0.1-49.3-0.1-73.9,0
	C14.2,7.9,8,14.5,8,24.2c0,4.3,0.2,8.7,0,13c-0.4,6.5,4,9.4,9.3,9.4c16.2-0.2,32.5-0.1,48.7-0.1c7.8,0,12.9,4.1,14.3,11.5
	c0.2,1.1,0.2,2.3,0.2,3.5C80.5,80,80.5,98.4,80.5,117.3z M8,53.9C8,66,8,78.6,8,91.3c0,7.8,3.4,13.3,10.6,16.3
	c8.3,3.5,16.6,7,25,10.4c5.2,2.1,10.5,4.4,15.9,6c6.1,1.8,12.9-2.9,12.9-8.6c0.1-18.4,0.1-36.7,0-55.1c0-4.1-2-5.7-5.9-5.7
	c-15.2,0.2-30.3,0.1-45.5,0C16.6,54.7,12.3,54.2,8,53.9z"/>
<g>
	<path d="M209.4,41.2c-3.5-8.8-11.2-12.9-19.7-10.6c-4.9,1.3-7.7,4.4-7.8,8.5c-0.1,4.1,2.2,7.1,7.1,8.6c4.6,1.4,9.3,2.3,14,3.5
		c2.5,0.6,5,1.4,7.3,2.3c17,6.9,14.7,26.6,5.7,34.6c-10.1,8.9-33,10.2-43.5-2.3c-2.9-3.5-5.2-7.3-5.5-12.3c4.3-1.2,8.4-2.3,12.6-3.4
		c2.3,12.7,14.4,14.8,22.4,12.1c4.6-1.6,7.1-5,7.1-9.5c0-4.3-2.1-7.1-7.1-8.6c-5.3-1.5-10.9-2.4-16.2-3.9
		c-11.5-3.2-16.7-9.6-16.6-20.1c0.1-10.3,6.3-18,17.1-20.9c15.2-4.1,30.4,3.2,35.5,17.6C217.6,38.2,213.5,39.7,209.4,41.2z"/>
	<path d="M362.8,86.4c0,9.7,0,18.6,0,27.8c-4.4,0-8.6,0-13.1,0c0-24.5,0-49.2,0-74c3.8,0,7.6,0,11.9,0c0,2.4,0,4.7,0,7.6
		C371.7,35,388.8,38,396,45c6.5,6.3,8.8,14.1,8.6,22.8c-0.3,12.8-7.2,22.5-18.1,25.9C377.5,96.6,368.8,94.1,362.8,86.4z M391.5,67.1
		c-0.3-2-0.4-4-0.9-5.9c-1.6-6.5-6.7-10.7-13.1-11c-6.5-0.3-12.1,3.3-13.7,9.9c-1,4-1.1,8.4-0.5,12.5c1.1,6.7,6.9,11,13.7,11
		C385.3,83.6,391.2,76.8,391.5,67.1z"/>
	<path d="M300.4,88c0,1.4,0,3.3,0,5.4c-4.2,0-8.3,0-12.7,0c0-24.8,0-49.7,0-74.9c4,0,8,0,12.5,0c0,9.1,0,18.3,0,27.3
		c3.7-2.1,7-4.9,10.9-6c12-3.6,24.2,2.4,28.7,14.1c4.1,10.5,3.6,20.9-2.8,30.4c-5.9,9-17.7,12.9-27.5,9.1
		C306.3,92.2,303.5,89.9,300.4,88z M299.8,66.7c0.2,0,0.4,0.1,0.5,0.1c0,0.9-0.1,1.8,0,2.7c0.5,7.3,5.9,13.4,12.2,14
		c7.7,0.7,13.9-3.4,15.7-11.1c0.7-3.2,0.7-6.7,0.3-10c-0.8-6.3-5.8-11.2-11.5-12c-6.7-0.9-12.3,1.7-15,7.6
		C300.9,60.7,300.6,63.8,299.8,66.7z"/>
	<path d="M529.4,18.4c4.2,0,8.2,0,12.5,0c0,14.5,0,29,0,44.4c4.4-4.9,8.6-8.7,11.8-13.3c5.4-7.6,11.9-11.6,21.4-9.7
		c0.5,0.1,1,0,2.2,0c-6.7,7.7-12.9,14.9-19.4,22.4c7.3,10.3,14.5,20.6,22,31.4c-5.2,0-9.8,0.1-14.3-0.1c-0.8,0-1.8-1.1-2.4-1.9
		c-5-7.1-9.9-14.4-15.4-22.4c-1.9,2.2-3.6,4.1-5.1,6.1c-0.6,0.8-0.8,2-0.9,3.1c-0.1,4.9,0,9.8,0,14.9c-4.3,0-8.4,0-12.7,0
		C529.4,68.4,529.4,43.5,529.4,18.4z"/>
	<path d="M410,66.6c0-16.9,11.1-27.7,28.6-27.6c15.6,0.1,27.2,11.9,26.8,28.4c-0.4,16-11.9,27.5-28.1,27.4
		C421.4,94.8,409.3,83,410,66.6z M452.5,70.1c0-11.1-3.4-16.8-9.7-19.1c-7.1-2.6-14.6,0.2-18.1,6.8c-3.9,7.5-1.9,18.5,4.3,22.9
		c4.8,3.4,10,3.9,15.2,1.3C450.4,79.1,452.4,73.6,452.5,70.1z"/>
	<path d="M631.6,70c-13.4,0-26.5,0-39.5,0c-0.1,5.8,3.4,11,8.6,13c6.7,2.6,13,0.8,18.2-5.3c0.8,0.2,1.7,0.3,2.6,0.5
		c2.8,0.7,5.6,1.4,8.6,2.2c-4.4,8.8-11.4,13.4-20.9,14.4C597,96,586.6,90.2,581.8,80c-5.2-11.2-3.2-25.5,4.9-33.5
		c8.4-8.3,18.6-9.5,29.2-5.8c10.5,3.7,14.6,12.5,15.6,23C631.7,65.6,631.6,67.5,631.6,70z M618.9,61.8c-0.7-8.7-5.7-13.1-14.3-12.7
		c-6.9,0.3-12.5,5.9-12.4,12.7C601,61.8,609.9,61.8,618.9,61.8z"/>
	<path d="M264.9,40.1c4.2,0,8.3,0,12.6,0c0,17.8,0,35.5,0,53.5c-3.8,0-7.7,0-11.9,0c0-2,0-4.2,0-5.9c-3.3,2.2-6.3,5.3-9.9,6.2
		c-11.8,3.2-24.2-0.1-25.6-17.1c-1-12.1-0.2-24.4-0.2-36.7c4.4,0,8.6,0,13.2,0c0,5.7,0,11.3,0,16.8c0,5.4-0.1,10.8,0,16.1
		c0.1,6.9,3.7,10.6,10.2,10.5c6.5,0,11.4-4.7,11.4-11.1c0.1-10,0-19.9,0-29.9C264.7,41.8,264.8,41.1,264.9,40.1z"/>
	<path d="M522.5,57.4c-4.2,0.8-8.3,1.5-12.4,2.3c-1.8-5-4.6-8.9-10.5-9.4c-6-0.6-11.2,2.1-13.6,7.6c-3.1,7.1-3,14.3,1.8,20.6
		c6,7.9,16.6,6.4,22.6-3.3c4,0.9,8.1,1.9,12.2,2.9c-4.7,12.8-17.6,19.2-31.6,15.9c-12.5-2.9-21.2-15.3-20.1-28.8
		c1.2-15.2,11-25.7,24.5-26.3C509.3,38.4,520.3,45.7,522.5,57.4z"/>
	<path d="M642.3,26.2c4.4,0,8.4,0,12.7,0c0,4.4,0,8.8,0,13.5c4.1,0,7.9,0,11.9,0c0,3.6,0,6.9,0,10.5c-3.8,0-7.6,0-11.7,0
		c0,9.1-0.3,17.8,0.1,26.5c0.2,5.1,2.5,6.6,7.8,6.7c1.2,0,2.4,0,4.1,0c0,1.8,0,3.5,0,5.1c0,1.5,0,3.1,0,4.9c-4.7,0-9.2,0.4-13.6-0.1
		c-6.8-0.7-11.1-6.4-11.2-14.4c-0.1-8.3,0-16.6,0-24.9c0-1.1,0-2.2,0-3.5c-2.7,0-5.1,0-7.8,0c0-3.5,0-6.8,0-10.5c2.4,0,4.9,0,7.8,0
		C642.3,35.2,642.3,30.8,642.3,26.2z"/>
</g>
</svg>
