<!-- Generator: Adobe Illustrator 17.1.0, SVG Export Plug-In  -->
<svg version="1.1"
	 xmlns="http://www.w3.org/2000/svg" xmlns:xlink="http://www.w3.org/1999/xlink" xmlns:a="http://ns.adobe.com/AdobeSVGViewerExtensions/3.0/"
	 x="0px" y="0px" width="1080px" height="1080px" viewBox="0 0 1080 1080" enable-background="new 0 0 1080 1080"
	 xml:space="preserve">
<defs>
</defs>
<g id="main_x5F_container_1_">
	<path fill="none" d="M859.2,1080H220.8C98.9,1080,0,981.1,0,859.2V220.8C0,98.9,98.9,0,220.8,0h638.3c122,0,220.8,98.9,220.8,220.8
		v638.3C1080,981.1,981.1,1080,859.2,1080z"/>
	<path id="logo_1_" fill="#182033" d="M542.3,143.7c78.8,0,157.6-1.6,236.3,0.5c68.7,1.9,124.7,59.3,125.4,128.5
		c1.3,144.2,2,288.5-0.5,432.8c-1,57.1-33.4,99.2-85.5,122.8c-72.4,32.9-145.6,64.2-218.7,95.5c-35.5,15.2-72.1,15.3-107.9,0.8
		c-74.8-30.2-149.5-60.8-224-91.9c-61.1-25.4-91.6-72.6-92-138c-0.8-136.7-0.6-273.5,0-410.2c0.4-85.7,53.5-139.9,139.2-141.3
		c75.9-1.3,151.8-0.3,227.7-0.3C542.3,143.3,542.3,143.5,542.3,143.7z M657.3,846c48.3-21.3,95.4-41.5,141.9-62.8
		c38.8-17.8,56.3-49.9,56.4-91.7c0.2-135,0.1-270,0-405c0-55.6-38.4-96.5-93.9-96.8c-147.7-0.8-295.5-0.7-443.2,0
		c-58.5,0.3-95.7,39.7-95.8,98.2c-0.1,26.1,1.2,52.2-0.3,78.2c-2.2,38.9,23.7,56.6,55.8,56.1c97.3-1.5,194.7-0.8,292-0.5
		c47,0.1,77.2,24.8,85.9,69.2c1.3,6.7,1.2,13.8,1.2,20.7C657.4,622.2,657.3,732.9,657.3,846z M222.7,465.7
		c0,72.5,0.2,148.3-0.1,224.2c-0.2,46.6,20.1,79.6,63.3,97.8c49.9,21,99.8,42.1,150,62.5c31.4,12.8,62.7,26.5,95.3,35.9
		c36.5,10.5,77.1-17.4,77.3-51.5c0.6-110.1,0.6-220.1,0-330.2c-0.1-24.7-11.8-34.3-35.4-34.1c-90.9,1-181.9,0.8-272.8,0.2
		C274.6,470.4,248.9,467.4,222.7,465.7z"/>
</g>
</svg>
